<?xml version="1.0" standalone="no"?><!DOCTYPE svg PUBLIC "-//W3C//DTD SVG 1.1//EN" "http://www.w3.org/Graphics/SVG/1.1/DTD/svg11.dtd"><svg t="1767865267682" class="icon" viewBox="0 0 1024 1024" version="1.1" xmlns="http://www.w3.org/2000/svg" p-id="1232" width="256" height="256" xmlns:xlink="http://www.w3.org/1999/xlink"><path d="M951.8592 445.44h-92.672v92.16a830.8224 830.8224 0 0 0-139.6736-92.16h-185.9072a46.08 46.08 0 0 1-46.4896-46.08V122.88a46.08 46.08 0 0 1 46.4896-46.08h418.304a46.08 46.08 0 0 1 46.4896 46.08v276.48a46.08 46.08 0 0 1-46.5408 46.08z m-342.1696-266.24H537.6v102.4h72.0896v-102.4z m142.9504 0h-71.68v102.4h71.68v-102.4z m143.36 0h-71.68v102.4h71.68v-102.4zM431.2064 502.2208L537.6 486.4v51.2l153.6-51.2h51.2v51.2h-51.2a1884.5184 1884.5184 0 0 0-204.8 102.4v-102.4h-51.2a51.2 51.2 0 0 1-51.2-51.2V182.5792A51.2 51.2 0 0 1 431.2576 128h23.6032v54.5792h-23.6544v319.6416zM384 681.6256c0 33.536-57.2928 60.7744-128 60.7744s-128-27.2384-128-60.7744c0-25.2416 32.3584-46.8992 78.4896-56.32a75.9808 75.9808 0 0 1-32.0512-60.7232A80.0768 80.0768 0 0 1 256 486.4a80.0768 80.0768 0 0 1 81.6128 78.3872 75.9808 75.9808 0 0 1-32.0512 60.7232c46.08 9.3696 78.4384 30.8736 78.4384 56.1152z m-300.8 106.1376h806.4v-258.9696L947.2 471.7568v296.96A76.4416 76.4416 0 0 1 870.4 844.8H102.4a76.4416 76.4416 0 0 1-76.8-76.0832V255.232A76.4416 76.4416 0 0 1 102.4 179.2h121.6v57.0368h-140.8v551.5264z m278.4256 101.8368h288a28.8256 28.8256 0 1 1 0 57.6H361.6256a28.7744 28.7744 0 1 1 0-57.6z" fill="#ffffff" p-id="1233"></path></svg>